<?xml version="1.0" encoding="iso-8859-1"?>
<!-- Generator: Adobe Illustrator 19.0.0, SVG Export Plug-In . SVG Version: 6.00 Build 0)  -->
<svg version="1.1" id="Capa_1" xmlns="http://www.w3.org/2000/svg" xmlns:xlink="http://www.w3.org/1999/xlink" x="0px" y="0px"
	 viewBox="0 0 512 512" style="enable-background:new 0 0 512 512;" xml:space="preserve">
<path style="fill:#4FC0E8;" d="M0,256c0,141.397,114.603,256,256,256s256-114.603,256-256S397.397,0,256,0S0,114.613,0,256z"/>
<path style="fill:#3DAED9;" d="M505.355,314.219l-54.4-54.197l-22.336-22.336l-0.715-0.619c-1.466-1.694-3.168-3.167-5.056-4.373
	l-0.661-0.576l0,0h-0.299c-10.304-5.984-26.155-5.984-46.421-5.984h-11.797l-51.008-51.008c-5.613-5.586-13.201-8.733-21.12-8.757
	H116.043c-8.791,0.016-16.767,5.154-20.416,13.152l-3.947,8.533c-6.507,14.027-8.256,17.792-14.731,43.733
	c-0.15,0.593-0.226,1.202-0.224,1.813v59.733c0.005,6.803,3.102,13.235,8.416,17.483l0,0v0.096l189.867,189.867l9.408,9.6
	C392.96,498.453,481.067,418.603,505.355,314.219z"/>
<g>
	<path style="fill:#FFFFFF;" d="M375.467,226.133h-11.797l-51.008-51.008c-5.613-5.586-13.201-8.733-21.12-8.757H116.043
		c-8.791,0.016-16.767,5.154-20.416,13.152l-3.947,8.533c-6.507,14.027-8.256,17.792-14.731,43.733
		c-0.15,0.593-0.226,1.202-0.224,1.813v59.733c0,12.371,10.029,22.4,22.4,22.4h8.224c4.089,20.209,23.786,33.278,43.995,29.189
		c14.714-2.977,26.212-14.476,29.189-29.189h135.979c4.089,20.209,23.786,33.278,43.995,29.189
		c14.714-2.977,26.212-14.476,29.189-29.189h15.691c16.495,0,29.867-13.372,29.867-29.867v-22.4
		C435.275,226.133,412.8,226.133,375.467,226.133z M302.059,185.696l40.48,40.437H256v-44.8h35.541
		c3.955,0.004,7.749,1.568,10.56,4.352L302.059,185.696z M166.4,226.133v-44.8h74.667v44.8H166.4z M105.237,194.368
		c1.152-2.496,2.464-5.333,3.989-8.661c1.21-2.678,3.877-4.399,6.816-4.395h35.424v44.8h-57.6
		C98.133,209.76,99.936,205.803,105.237,194.368z M144,330.667c-12.371,0-22.4-10.029-22.4-22.4c0-12.371,10.029-22.4,22.4-22.4
		c12.371,0,22.4,10.029,22.4,22.4l0,0C166.4,320.638,156.371,330.667,144,330.667z M353.067,330.667
		c-12.371,0-22.4-10.029-22.4-22.4c0-12.371,10.029-22.4,22.4-22.4s22.4,10.029,22.4,22.4l0,0
		C375.467,320.638,365.438,330.667,353.067,330.667z M405.333,300.8h-15.637c-4.089-20.209-23.786-33.278-43.995-29.189
		c-14.714,2.977-26.212,14.476-29.189,29.189H180.544c-4.089-20.209-23.786-33.278-43.995-29.189
		c-14.714,2.977-26.212,14.476-29.189,29.189h-8.224c-4.124,0-7.467-3.343-7.467-7.467v-52.267h283.797
		c39.744,0,44.8,0.832,44.8,22.4h-14.933c-4.124,0-7.467,3.343-7.467,7.467s3.343,7.467,7.467,7.467h14.933v7.467
		c0,8.226-6.654,14.903-14.88,14.933H405.333z"/>
	<path style="fill:#FFFFFF;" d="M285.867,248.533H278.4c-4.124,0-7.467,3.343-7.467,7.467c0,4.124,3.343,7.467,7.467,7.467h7.467
		c4.124,0,7.467-3.343,7.467-7.467C293.333,251.876,289.99,248.533,285.867,248.533z"/>
	<path style="fill:#FFFFFF;" d="M188.8,248.533h-7.467c-4.124,0-7.467,3.343-7.467,7.467c0,4.124,3.343,7.467,7.467,7.467h7.467
		c4.124,0,7.467-3.343,7.467-7.467C196.267,251.876,192.924,248.533,188.8,248.533z"/>
</g>
<g>
</g>
<g>
</g>
<g>
</g>
<g>
</g>
<g>
</g>
<g>
</g>
<g>
</g>
<g>
</g>
<g>
</g>
<g>
</g>
<g>
</g>
<g>
</g>
<g>
</g>
<g>
</g>
<g>
</g>
</svg>
