<?xml version="1.0" encoding="iso-8859-1"?>
<!-- Generator: Adobe Illustrator 19.0.0, SVG Export Plug-In . SVG Version: 6.00 Build 0)  -->
<svg version="1.1" id="Capa_1" xmlns="http://www.w3.org/2000/svg" xmlns:xlink="http://www.w3.org/1999/xlink" x="0px" y="0px"
	 viewBox="0 0 512 512" style="enable-background:new 0 0 512 512;" xml:space="preserve">
<path style="fill:#4FC0E8;" d="M0,256c0,141.397,114.603,256,256,256s256-114.603,256-256S397.397,0,256,0S0,114.613,0,256z"/>
<path style="fill:#3DAED9;" d="M390.795,208.363l-0.075-0.075h-0.32c-3.264-4.58-8.563-7.274-14.187-7.211h-90.347l-3.317-3.552
	l-49.515-49.515l-0.075-0.075h-0.181c-0.846-2.656-3.313-4.46-6.101-4.459h-25.6c-14.176,0-19.2,5.024-19.2,19.2v7.371
	c-6.603-4.672-15.392-7.371-25.6-7.371c-3.535,0-6.4,2.865-6.4,6.4v51.2c0,2.79,1.809,5.26,4.469,6.101v0.171l12.309,13.003
	c-29.589,1.515-61.589,31.093-61.589,70.315c-0.003,2.785,1.796,5.252,4.448,6.101l-0.075,0.096l8.427,8.896l0.373,0.971
	c0.916,7.347,3.567,14.37,7.733,20.491l0.363,0.96l0,0l1.387,1.408c2.276,2.938,4.885,5.601,7.776,7.936l29.835,30.475
	l122.816,122.795c104.437-13.077,189.291-89.056,215.467-188.8L390.795,208.363z"/>
<path style="fill:#F4F6F9;" d="M375.051,240.309l14.187-12.992c3.883-3.445,3.851-7.616,3.829-10.731
	c0-8.533-7.552-15.52-16.821-15.52H269.461c-9.483,0-17.195,7.104-17.195,15.84v16.203c0.1,5.115,3.251,9.673,8,11.573
	c-15.904,10.933-25.035,29.451-26.859,55.221c-20.416-12.085-38.741-34.133-38.741-60.437v-76.8
	c-0.074-1.938,0.077-3.878,0.448-5.781c0.235-0.149,1.376-0.619,5.952-0.619h25.6c3.535,0,6.4-2.865,6.4-6.4s-2.865-6.4-6.4-6.4
	h-25.6c-14.176,0-19.2,5.024-19.2,19.2v7.371c-6.603-4.672-15.392-7.371-25.6-7.371c-3.535,0-6.4,2.865-6.4,6.4v51.2
	c0,3.535,2.865,6.4,6.4,6.4c10.208,0,18.997-2.699,25.6-7.371v20.171h-12.8c-30.208,0-64,30.101-64,70.4c0,3.535,2.865,6.4,6.4,6.4
	h6.656c-0.117,1.291-0.256,2.581-0.256,3.84c0,26.112,21.536,47.36,48,47.36s48-21.248,48-47.36c0-1.269-0.149-2.56-0.256-3.84
	h23.328c8.836,4.045,18.412,6.223,28.128,6.4h25.6c0,24.704,21.536,44.8,48,44.8s48-20.096,48-44.8h12.8c3.535,0,6.4-2.865,6.4-6.4
	C405.867,278.827,394.667,252.309,375.051,240.309z M162.667,213.333V176c11.733,1.856,19.2,8.917,19.2,18.709
	S174.379,211.52,162.667,213.333z M201.067,320.064c0,19.061-15.797,34.56-35.2,34.56s-35.2-15.499-35.2-34.56
	c0.012-1.284,0.101-2.566,0.267-3.84h69.877c0.164,1.287,0.25,2.585,0.256,3.883L201.067,320.064L201.067,320.064z M118.187,303.424
	c3.296-31.893,30.805-51.2,50.88-51.2h14.037c3.904,20.267,16.672,38.4,32.779,51.2H118.187z M265.92,233.024
	c-0.302,0.01-0.598-0.073-0.853-0.235v-15.883c0-1.44,1.877-3.04,4.395-3.04h106.784c2.304,0,4.021,1.429,4.021,2.763
	c0,0,0,0.672,0,0.683c0,0.299,0,0.576,0,0.843L364,233.088c-0.48,0-1.376,0-1.995,0H265.92V233.024z M338.667,354.624
	c-19.403,0-35.2-14.357-35.2-32h70.4c0,17.643-15.797,32.043-35.2,32.043V354.624z M265.067,309.824
	c-6.582-0.143-13.085-1.466-19.2-3.904c1.067-40.971,19.445-60.096,57.6-60.096h44.8c36.757,0,43.733,40.704,44.672,64H265.067z"/>
<g>
</g>
<g>
</g>
<g>
</g>
<g>
</g>
<g>
</g>
<g>
</g>
<g>
</g>
<g>
</g>
<g>
</g>
<g>
</g>
<g>
</g>
<g>
</g>
<g>
</g>
<g>
</g>
<g>
</g>
</svg>
