<?xml version="1.0" encoding="iso-8859-1"?>
<!-- Generator: Adobe Illustrator 19.0.0, SVG Export Plug-In . SVG Version: 6.00 Build 0)  -->
<svg version="1.1" id="Capa_1" xmlns="http://www.w3.org/2000/svg" xmlns:xlink="http://www.w3.org/1999/xlink" x="0px" y="0px"
	 viewBox="0 0 512 512" style="enable-background:new 0 0 512 512;" xml:space="preserve">
<path style="fill:#FFCD54;" d="M512,256c0,141.397-114.603,256-256,256S0,397.397,0,256S114.603,0,256,0S512,114.613,512,256z"/>
<path style="fill:#F4BA41;" d="M504.395,318.112l-21.973-24.224L355.808,167.264l-0.128,0.075
	c-4.275-5.313-10.727-8.404-17.547-8.405h-231.52c-12.371,0-22.4,10.029-22.4,22.4v134.4c0.01,2.875,1.669,5.488,4.267,6.72h-0.085
	l26.197,26.197l161.803,162.539C387.253,502.464,478.229,423.115,504.395,318.112z"/>
<g>
	<path style="fill:#FFFFFF;" d="M395.392,220.256l-39.307-52.405c-4.259-5.617-10.902-8.917-17.952-8.917h-231.52
		c-12.371,0-22.4,10.029-22.4,22.4v134.4c0,4.124,3.343,7.467,7.467,7.467h30.635c4.089,20.209,23.786,33.278,43.995,29.189
		c14.714-2.977,26.212-14.476,29.189-29.189h121.013c4.089,20.209,23.786,33.278,43.995,29.189
		c14.714-2.977,26.212-14.476,29.189-29.189h30.635c4.124,0,7.467-3.343,7.467-7.467V278.4
		C427.797,262.965,427.797,237.28,395.392,220.256z M106.613,173.867h231.52c2.35,0,4.563,1.106,5.973,2.987l40.331,53.781
		c0.695,0.927,1.598,1.679,2.635,2.197c9.365,4.683,15.296,10.069,19.093,15.723H99.136v-67.221c0-4.124,3.343-7.467,7.467-7.467
		C106.606,173.867,106.61,173.867,106.613,173.867z M158.933,338.133c-12.371,0-22.4-10.029-22.4-22.4
		c0-12.371,10.029-22.4,22.4-22.4c12.371,0,22.4,10.029,22.4,22.4l0,0C181.333,328.105,171.305,338.133,158.933,338.133z
		 M353.067,338.133c-12.371,0-22.4-10.029-22.4-22.4c0-12.371,10.029-22.4,22.4-22.4s22.4,10.029,22.4,22.4l0,0
		C375.467,328.105,365.438,338.133,353.067,338.133z M412.8,308.267h-23.104c-4.089-20.209-23.786-33.278-43.995-29.189
		c-14.714,2.977-26.212,14.476-29.189,29.189H195.488c-4.089-20.209-23.786-33.278-43.995-29.189
		c-14.714,2.977-26.212,14.476-29.189,29.189H99.136v-44.8h312.843c0.713,4.944,1.009,9.939,0.885,14.933L412.8,308.267z"/>
	<path style="fill:#FFFFFF;" d="M285.867,233.6h67.2c4.124,0.001,7.468-3.34,7.47-7.463c0-1.358-0.369-2.69-1.07-3.854l-22.4-37.333
		c-1.348-2.249-3.778-3.626-6.4-3.627h-44.8c-4.124,0-7.467,3.343-7.467,7.467v37.333c-0.006,4.124,3.332,7.471,7.456,7.477
		C285.859,233.6,285.863,233.6,285.867,233.6z M293.333,196.267H326.4l13.451,22.4h-46.517V196.267z"/>
	<path style="fill:#FFFFFF;" d="M114.08,233.6h149.387c4.124,0,7.467-3.343,7.467-7.467V188.8c0-4.124-3.343-7.467-7.467-7.467
		H114.08c-4.124,0-7.467,3.343-7.467,7.467v37.333C106.613,230.257,109.956,233.6,114.08,233.6z M256,218.667h-67.2v-22.4H256
		V218.667z M121.6,196.267h52.267v22.4H121.6V196.267z"/>
</g>
<g>
</g>
<g>
</g>
<g>
</g>
<g>
</g>
<g>
</g>
<g>
</g>
<g>
</g>
<g>
</g>
<g>
</g>
<g>
</g>
<g>
</g>
<g>
</g>
<g>
</g>
<g>
</g>
<g>
</g>
</svg>
