<?xml version="1.0" encoding="iso-8859-1"?>
<!-- Generator: Adobe Illustrator 19.0.0, SVG Export Plug-In . SVG Version: 6.00 Build 0)  -->
<svg version="1.1" id="Capa_1" xmlns="http://www.w3.org/2000/svg" xmlns:xlink="http://www.w3.org/1999/xlink" x="0px" y="0px"
	 viewBox="0 0 512 512" style="enable-background:new 0 0 512 512;" xml:space="preserve">
<path style="fill:#47CEAC;" d="M512,256c0,141.397-114.603,256-256,256S0,397.397,0,256S114.603,0,256,0S512,114.613,512,256z"/>
<path style="fill:#36BB9A;" d="M402.133,229.845l-0.523-0.224c-4.363-5.333-10.357-8.821-17.632-8.821h-3.2l-0.533-0.224
	l-38.027-37.835l-0.235,0.117c-7.258-8.431-17.835-13.274-28.96-13.259H224c-6.041,0.012-11.726,2.854-15.36,7.68L176,220.8h-41.6
	c-17.674,0-32,14.326-32,32l0,0v50.901l-0.117,0.064l-0.288,0.149l0.427,0.565c0.188,2.54,1.863,4.726,4.267,5.568l0.245,0.32
	l197.12,197.12c93.901-18.005,169.974-86.777,197.333-178.389L402.133,229.845z"/>
<path style="fill:#F4F6F9;" d="M384,220.8h-21.643l-14.987-29.973c-6.466-13.044-19.788-21.277-34.347-21.227H224
	c-6.041,0.012-11.726,2.854-15.36,7.68L176,220.8h-41.6c-17.674,0-32,14.326-32,32l0,0V304c0,3.535,2.865,6.4,6.4,6.4h13.376
	c3.66,20.89,23.561,34.858,44.45,31.198c15.932-2.791,28.406-15.266,31.198-31.198h109.952c3.66,20.89,23.561,34.858,44.45,31.198
	c15.932-2.791,28.407-15.266,31.198-31.198H403.2c3.535,0,6.4-2.865,6.4-6.4v-51.2C409.6,237.408,399.808,220.8,384,220.8z
	 M218.891,184.96c1.206-1.609,3.099-2.557,5.109-2.56h89.024c9.705-0.032,18.583,5.458,22.891,14.155l12.128,24.245H192
	L218.891,184.96z M115.2,252.8c0-10.604,8.596-19.2,19.2-19.2H384c7.328,0,12.8,10.133,12.8,19.2v44.8h-13.376
	c-3.66-20.89-23.561-34.858-44.45-31.198c-15.932,2.791-28.407,15.266-31.198,31.198H197.824
	c-3.66-20.89-23.561-34.858-44.45-31.198c-15.932,2.791-28.406,15.266-31.198,31.198H115.2V252.8z M160,329.6
	c-14.139,0-25.6-11.461-25.6-25.6c0-14.139,11.461-25.6,25.6-25.6c14.139,0,25.6,11.461,25.6,25.6
	C185.6,318.139,174.139,329.6,160,329.6z M345.6,329.6c-14.139,0-25.6-11.461-25.6-25.6c0-14.139,11.461-25.6,25.6-25.6
	s25.6,11.461,25.6,25.6C371.2,318.139,359.739,329.6,345.6,329.6z"/>
<g>
</g>
<g>
</g>
<g>
</g>
<g>
</g>
<g>
</g>
<g>
</g>
<g>
</g>
<g>
</g>
<g>
</g>
<g>
</g>
<g>
</g>
<g>
</g>
<g>
</g>
<g>
</g>
<g>
</g>
</svg>
